<svg xmlns="http://www.w3.org/2000/svg" viewBox="-30 -30 220 220"><defs>
    <linearGradient id="icRing" gradientUnits="userSpaceOnUse" x1="80" y1="22" x2="80" y2="138">
      <stop offset="0" stop-color="#FFB24D"></stop><stop offset="0.28" stop-color="#FF6A14"></stop>
      <stop offset="0.45" stop-color="#FFDAA6"></stop><stop offset="0.5" stop-color="#FFFFFF"></stop>
      <stop offset="0.55" stop-color="#CFF7FF"></stop><stop offset="0.72" stop-color="#18E2FF"></stop>
      <stop offset="1" stop-color="#7DF3FF"></stop>
    </linearGradient>
    <linearGradient id="icRingHot" gradientUnits="userSpaceOnUse" x1="80" y1="22" x2="80" y2="138">
      <stop offset="0" stop-color="#FF8A2E"></stop><stop offset="0.5" stop-color="#FFFFFF"></stop><stop offset="1" stop-color="#34E7FF"></stop>
    </linearGradient>
    <linearGradient id="icPlay" x1="0.1" y1="0" x2="0.9" y2="1">
      <stop offset="0" stop-color="#FFD08A"></stop><stop offset="0.5" stop-color="#FF6A14"></stop><stop offset="1" stop-color="#E83C04"></stop>
    </linearGradient>
    <radialGradient id="icCore" cx="0.5" cy="0.4" r="0.78">
      <stop offset="0" stop-color="#101116"></stop><stop offset="0.65" stop-color="#08090C"></stop><stop offset="1" stop-color="#040405"></stop>
    </radialGradient>
    <filter id="icS" x="-100%" y="-100%" width="300%" height="300%"><feGaussianBlur stdDeviation="1.4"></feGaussianBlur></filter>
    <filter id="icM" x="-200%" y="-200%" width="500%" height="500%"><feGaussianBlur stdDeviation="4.5"></feGaussianBlur></filter>
    <filter id="icL" x="-300%" y="-300%" width="700%" height="700%"><feGaussianBlur stdDeviation="11"></feGaussianBlur></filter>
    <filter id="icXL" x="-450%" y="-450%" width="1000%" height="1000%"><feGaussianBlur stdDeviation="22"></feGaussianBlur></filter>
  </defs><g><circle cx="80" cy="80" r="58" fill="none" stroke="url(#icRingHot)" stroke-width="14" filter="url(#icXL)" opacity="0.75"></circle><circle cx="80" cy="80" r="58" fill="none" stroke="url(#icRingHot)" stroke-width="9" filter="url(#icL)" opacity="0.95"></circle><circle cx="80" cy="80" r="58" fill="none" stroke="url(#icRingHot)" stroke-width="5" filter="url(#icM)"></circle></g><circle cx="80" cy="80" r="53.5" fill="url(#icCore)"></circle><circle cx="80" cy="80" r="64.5" fill="none" stroke="rgba(255,154,58,0.20)" stroke-width="0.75"></circle><circle cx="80" cy="80" r="47" fill="none" stroke="rgba(140,247,255,0.22)" stroke-width="0.75"></circle><circle cx="80" cy="80" r="58" fill="none" stroke="url(#icRing)" stroke-width="8"></circle><circle cx="80" cy="80" r="58" fill="none" stroke="#FFFFFF" stroke-width="3" opacity="0.9" filter="url(#icS)"></circle><circle cx="22" cy="80" r="3.4" fill="#fff" filter="url(#icM)"></circle><circle cx="138" cy="80" r="3.4" fill="#fff" filter="url(#icM)"></circle><circle cx="22" cy="80" r="1.5" fill="#fff" filter="url(#icS)"></circle><circle cx="138" cy="80" r="1.5" fill="#fff" filter="url(#icS)"></circle><path d="M67.5 62 L101.5 80 L67.5 98 Z" fill="#FF6A14" filter="url(#icM)" opacity="0.9"></path><path d="M67.5 62 L101.5 80 L67.5 98 Z" fill="url(#icPlay)" stroke-linejoin="round"></path><path d="M67.5 62 L101.5 80 L67.5 98 Z" fill="none" stroke="#fff" stroke-width="1" stroke-linejoin="round" opacity="0.65" filter="url(#icS)"></path></svg>