<svg xmlns="http://www.w3.org/2000/svg" viewBox="-26 -30 568.6 220"><defs><linearGradient id="he" x1="0" y1="0" x2="0" y2="1"><stop offset="0" stop-color="#FFB04D"></stop><stop offset="0.56" stop-color="#FF6A14"></stop><stop offset="1" stop-color="#EC4308"></stop></linearGradient></defs><defs>
    <linearGradient id="hRing" gradientUnits="userSpaceOnUse" x1="80" y1="22" x2="80" y2="138">
      <stop offset="0" stop-color="#FFB24D"></stop><stop offset="0.28" stop-color="#FF6A14"></stop>
      <stop offset="0.45" stop-color="#FFDAA6"></stop><stop offset="0.5" stop-color="#FFFFFF"></stop>
      <stop offset="0.55" stop-color="#CFF7FF"></stop><stop offset="0.72" stop-color="#18E2FF"></stop>
      <stop offset="1" stop-color="#7DF3FF"></stop>
    </linearGradient>
    <linearGradient id="hRingHot" gradientUnits="userSpaceOnUse" x1="80" y1="22" x2="80" y2="138">
      <stop offset="0" stop-color="#FF8A2E"></stop><stop offset="0.5" stop-color="#FFFFFF"></stop><stop offset="1" stop-color="#34E7FF"></stop>
    </linearGradient>
    <linearGradient id="hPlay" x1="0.1" y1="0" x2="0.9" y2="1">
      <stop offset="0" stop-color="#FFD08A"></stop><stop offset="0.5" stop-color="#FF6A14"></stop><stop offset="1" stop-color="#E83C04"></stop>
    </linearGradient>
    <radialGradient id="hCore" cx="0.5" cy="0.4" r="0.78">
      <stop offset="0" stop-color="#101116"></stop><stop offset="0.65" stop-color="#08090C"></stop><stop offset="1" stop-color="#040405"></stop>
    </radialGradient>
    <filter id="hS" x="-100%" y="-100%" width="300%" height="300%"><feGaussianBlur stdDeviation="1.4"></feGaussianBlur></filter>
    <filter id="hM" x="-200%" y="-200%" width="500%" height="500%"><feGaussianBlur stdDeviation="4.5"></feGaussianBlur></filter>
    <filter id="hL" x="-300%" y="-300%" width="700%" height="700%"><feGaussianBlur stdDeviation="11"></feGaussianBlur></filter>
    <filter id="hXL" x="-450%" y="-450%" width="1000%" height="1000%"><feGaussianBlur stdDeviation="22"></feGaussianBlur></filter>
  </defs><g><circle cx="80" cy="80" r="58" fill="none" stroke="url(#hRingHot)" stroke-width="14" filter="url(#hXL)" opacity="0.75"></circle><circle cx="80" cy="80" r="58" fill="none" stroke="url(#hRingHot)" stroke-width="9" filter="url(#hL)" opacity="0.95"></circle><circle cx="80" cy="80" r="58" fill="none" stroke="url(#hRingHot)" stroke-width="5" filter="url(#hM)"></circle></g><circle cx="80" cy="80" r="53.5" fill="url(#hCore)"></circle><circle cx="80" cy="80" r="64.5" fill="none" stroke="rgba(255,154,58,0.20)" stroke-width="0.75"></circle><circle cx="80" cy="80" r="47" fill="none" stroke="rgba(140,247,255,0.22)" stroke-width="0.75"></circle><circle cx="80" cy="80" r="58" fill="none" stroke="url(#hRing)" stroke-width="8"></circle><circle cx="80" cy="80" r="58" fill="none" stroke="#FFFFFF" stroke-width="3" opacity="0.9" filter="url(#hS)"></circle><circle cx="22" cy="80" r="3.4" fill="#fff" filter="url(#hM)"></circle><circle cx="138" cy="80" r="3.4" fill="#fff" filter="url(#hM)"></circle><circle cx="22" cy="80" r="1.5" fill="#fff" filter="url(#hS)"></circle><circle cx="138" cy="80" r="1.5" fill="#fff" filter="url(#hS)"></circle><path d="M67.5 62 L101.5 80 L67.5 98 Z" fill="#FF6A14" filter="url(#hM)" opacity="0.9"></path><path d="M67.5 62 L101.5 80 L67.5 98 Z" fill="url(#hPlay)" stroke-linejoin="round"></path><path d="M67.5 62 L101.5 80 L67.5 98 Z" fill="none" stroke="#fff" stroke-width="1" stroke-linejoin="round" opacity="0.65" filter="url(#hS)"></path><g transform="translate(179.50,113.02) scale(0.93)"><path d="M21 0L8 0L8-71L21-71L21-38.600L48.800-71L64.200-71L37.600-39.800L65.900 0L51 0L29-30.900L21-21.800L21 0Z M86.700 1.200L86.700 1.200Q78.300 1.200 73.200-2.600Q68.100-6.400 68.100-13.400L68.100-13.400Q68.100-20.300 72.400-24.200Q76.700-28.100 85.500-29.800L85.500-29.800L103.200-33.300Q103.200-44.700 92.900-44.700L92.900-44.700Q88.300-44.700 85.600-42.550Q82.900-40.400 82-36.400L82-36.400L69-37Q70.600-45.400 76.800-50Q83-54.600 92.900-54.600L92.900-54.600Q104.300-54.600 110.150-48.850Q116-43.100 116-32.400L116-32.400L116-13Q116-10.900 116.750-10.100Q117.500-9.300 119-9.300L119-9.300L120.700-9.300L120.700 0Q119 0.400 116 0.400L116 0.400Q111.700 0.400 108.700-1.400Q105.700-3.200 104.900-8.100L104.900-8.100L104.900-8.200Q102.900-4 98.050-1.400Q93.200 1.200 86.700 1.200ZM89.300-8.100L89.300-8.100Q95.700-8.100 99.450-11.800Q103.200-15.500 103.200-21.600L103.200-21.600L103.200-24.600L89.400-21.800Q85.100-20.900 83.250-19.150Q81.400-17.400 81.400-14.600L81.400-14.600Q81.400-8.100 89.300-8.100Z M146.900 0L139 0Q133.100 0 129.650-3Q126.200-6 126.200-12.600L126.200-12.600L126.200-71L139-71L139-13.900Q139-9.900 143-9.900L143-9.900L146.900-9.900L146.900 0Z M165.700 0L152.900 0L152.900-53.400L165.700-53.400L165.700 0ZM166.000-60.500L152.700-60.500L152.700-71.900L166.000-71.900L166.000-60.500Z" fill="#0B0B0D"></path></g><g transform="translate(337.41,113.02) scale(0.93)"><path d="M19.800 15L7 15L7-53.400L19.300-53.400L19.500-45.400Q21.800-49.900 26-52.250Q30.200-54.600 35.500-54.600L35.500-54.600Q43.100-54.600 48.150-50.850Q53.200-47.100 55.700-40.750Q58.200-34.400 58.200-26.700L58.200-26.700Q58.200-19 55.650-12.700Q53.100-6.400 48.050-2.600Q43 1.200 35.400 1.200L35.400 1.200Q30.300 1.200 26.150-1.050Q22-3.300 19.800-7.300L19.800-7.300L19.800 15ZM32.400-9.200L32.400-9.200Q38.200-9.200 41.550-13.850Q44.900-18.500 44.900-26.700L44.900-26.700Q44.900-34.900 41.550-39.550Q38.200-44.200 32.400-44.200L32.400-44.200Q26.600-44.200 23.200-39.800Q19.800-35.400 19.800-26.700L19.800-26.700Q19.800-18 23.150-13.600Q26.500-9.200 32.400-9.200Z M86.800 0L78.900 0Q73 0 69.550-3Q66.100-6 66.100-12.600L66.100-12.600L66.100-71L78.900-71L78.900-13.900Q78.900-9.900 82.900-9.900L82.900-9.900L86.800-9.900L86.800 0Z M108.300 1.200L108.300 1.200Q99.900 1.200 94.800-2.600Q89.700-6.400 89.700-13.400L89.700-13.400Q89.700-20.300 94-24.200Q98.300-28.100 107.100-29.800L107.100-29.800L124.800-33.300Q124.800-44.700 114.500-44.700L114.500-44.700Q109.900-44.700 107.200-42.550Q104.500-40.400 103.600-36.400L103.600-36.400L90.600-37Q92.200-45.400 98.400-50Q104.600-54.600 114.500-54.600L114.500-54.600Q125.900-54.600 131.750-48.850Q137.600-43.100 137.600-32.400L137.600-32.400L137.600-13Q137.600-10.900 138.350-10.100Q139.100-9.300 140.600-9.300L140.600-9.300L142.300-9.300L142.300 0Q140.600 0.400 137.600 0.400L137.600 0.400Q133.300 0.400 130.300-1.400Q127.300-3.200 126.500-8.100L126.500-8.100L126.500-8.200Q124.500-4 119.650-1.400Q114.800 1.200 108.300 1.200ZM110.900-8.100L110.900-8.100Q117.300-8.100 121.050-11.800Q124.800-15.500 124.800-21.600L124.800-21.600L124.800-24.600L111-21.800Q106.700-20.900 104.850-19.150Q103-17.400 103-14.600L103-14.600Q103-8.100 110.900-8.100Z M160.700 15L151.600 15L151.600 5.100L158.400 5.100Q161 5.100 162.250 4.300Q163.500 3.500 164.200 1.600L164.200 1.600L165.700-2.100L162-2.100L142.900-53.400L156.200-53.400L169.600-14.100L182.400-53.400L195.700-53.400L174.800 5.600Q173 10.600 169.750 12.800Q166.500 15 160.700 15L160.700 15Z" fill="url(#he)"></path></g></svg>